# xmcd
#
# Track frame offsets:
#  183
#  19458
#  32843
#  45708
#  62208
#  82458
#  105483
#  123158
#  143058
#  152133
#  167058
#  192783
#  206395
#  216348
#  236243
#  247458
#
# Disc length: 3506 seconds
#
# Revision: 0
# Processed by: cddbd v1.5.1PL2 Copyright (c) Steve Scherf et al.
# Submitted via: Collectorz.com_Music_Collector 6.9
#
DISCID=f20db010
DTITLE=Ray CHARLES - Ray Charles - A Man and His Music - CD 3
DYEAR=1993
DGENRE=Blues - R&B - Soul
TTITLE0=I  Can't Stop Loving You
TTITLE1=Take These Chains From My Heart
TTITLE2=Unchain My Heart
TTITLE3=Georgia On My Mind
TTITLE4=The Man I Love
TTITLE5=I Surrender Dear
TTITLE6=Ruby
TTITLE7=That Lucky Old Sun
TTITLE8=Hit The Road Jack
TTITLE9=Born To Lose
TTITLE10=Ain't Misbehavin'
TTITLE11=You Are My Sunshine
TTITLE12=Busted
TTITLE13=My Melancholy Baby
TTITLE14=Deed I Do
TTITLE15=Just For A Thrill
EXTD=
EXTT0=
EXTT1=
EXTT2=
EXTT3=
EXTT4=
EXTT5=
EXTT6=
EXTT7=
EXTT8=
EXTT9=
EXTT10=
EXTT11=
EXTT12=
EXTT13=
EXTT14=
EXTT15=
PLAYORDER=
